<mxfile host="app.diagrams.net" modified="2023-12-12T15:22:44.021Z" agent="Mozilla/5.0 (Windows NT 10.0; Win64; x64; rv:120.0) Gecko/20100101 Firefox/120.0" etag="7lxFfIvav9b2BsqqAHXi" version="22.1.7" type="google">
  <diagram name="Page-1" id="jg9EPWA0JqoZnRKgXI8t">
    <mxGraphModel grid="1" page="1" gridSize="10" guides="1" tooltips="1" connect="1" arrows="1" fold="1" pageScale="1" pageWidth="850" pageHeight="1100" math="0" shadow="0">
      <root>
        <mxCell id="0" />
        <mxCell id="1" parent="0" />
        <mxCell id="J2Iu04j1FfDjSoK0iuVQ-2" value="&lt;div&gt;Master&lt;/div&gt;&lt;div&gt;Board&lt;br&gt;&lt;/div&gt;" style="whiteSpace=wrap;html=1;aspect=fixed;" vertex="1" parent="1">
          <mxGeometry x="490" y="130" width="80" height="80" as="geometry" />
        </mxCell>
        <mxCell id="J2Iu04j1FfDjSoK0iuVQ-4" value="&lt;div&gt;Main Fuse&lt;/div&gt;&lt;div&gt;Pannel&lt;br&gt;&lt;/div&gt;" style="whiteSpace=wrap;html=1;aspect=fixed;" vertex="1" parent="1">
          <mxGeometry x="130" y="210" width="80" height="80" as="geometry" />
        </mxCell>
        <mxCell id="J2Iu04j1FfDjSoK0iuVQ-6" value="&lt;div&gt;5V&lt;/div&gt;&lt;div&gt;Reg-&lt;/div&gt;&lt;div&gt;Ulator&lt;br&gt;&lt;/div&gt;" style="rounded=1;whiteSpace=wrap;html=1;" vertex="1" parent="1">
          <mxGeometry x="370" y="130" width="40" height="80" as="geometry" />
        </mxCell>
        <mxCell id="J2Iu04j1FfDjSoK0iuVQ-7" value="&lt;div&gt;7.5V&lt;/div&gt;&lt;div&gt;Reg-&lt;/div&gt;&lt;div&gt;Ulator&lt;br&gt;&lt;/div&gt;" style="rounded=1;whiteSpace=wrap;html=1;" vertex="1" parent="1">
          <mxGeometry x="280" y="130" width="40" height="80" as="geometry" />
        </mxCell>
        <mxCell id="J2Iu04j1FfDjSoK0iuVQ-9" value="" style="endArrow=none;html=1;rounded=0;exitX=1;exitY=0.25;exitDx=0;exitDy=0;entryX=0.25;entryY=0;entryDx=0;entryDy=0;fillColor=#f8cecc;strokeColor=#ff0000;" edge="1" parent="1" source="J2Iu04j1FfDjSoK0iuVQ-4" target="J2Iu04j1FfDjSoK0iuVQ-7">
          <mxGeometry width="50" height="50" relative="1" as="geometry">
            <mxPoint x="490" y="330" as="sourcePoint" />
            <mxPoint x="350" y="90" as="targetPoint" />
            <Array as="points">
              <mxPoint x="270" y="230" />
              <mxPoint x="270" y="90" />
              <mxPoint x="290" y="90" />
            </Array>
          </mxGeometry>
        </mxCell>
        <mxCell id="J2Iu04j1FfDjSoK0iuVQ-10" value="" style="endArrow=none;html=1;rounded=0;exitX=1;exitY=0.5;exitDx=0;exitDy=0;entryX=0.25;entryY=1;entryDx=0;entryDy=0;strokeColor=#400000;" edge="1" parent="1" source="J2Iu04j1FfDjSoK0iuVQ-4" target="J2Iu04j1FfDjSoK0iuVQ-7">
          <mxGeometry width="50" height="50" relative="1" as="geometry">
            <mxPoint x="490" y="330" as="sourcePoint" />
            <mxPoint x="410" y="250" as="targetPoint" />
            <Array as="points">
              <mxPoint x="290" y="250" />
            </Array>
          </mxGeometry>
        </mxCell>
        <mxCell id="J2Iu04j1FfDjSoK0iuVQ-11" value="" style="endArrow=none;html=1;rounded=0;entryX=0.25;entryY=1;entryDx=0;entryDy=0;strokeColor=#400000;" edge="1" parent="1" target="J2Iu04j1FfDjSoK0iuVQ-6">
          <mxGeometry width="50" height="50" relative="1" as="geometry">
            <mxPoint x="210" y="260" as="sourcePoint" />
            <mxPoint x="460" y="260" as="targetPoint" />
            <Array as="points">
              <mxPoint x="380" y="260" />
            </Array>
          </mxGeometry>
        </mxCell>
        <mxCell id="J2Iu04j1FfDjSoK0iuVQ-12" value="" style="endArrow=none;html=1;rounded=0;fillColor=#f8cecc;strokeColor=#ff0000;entryX=0.25;entryY=0;entryDx=0;entryDy=0;" edge="1" parent="1" target="J2Iu04j1FfDjSoK0iuVQ-6">
          <mxGeometry width="50" height="50" relative="1" as="geometry">
            <mxPoint x="210" y="220" as="sourcePoint" />
            <mxPoint x="420" y="80" as="targetPoint" />
            <Array as="points">
              <mxPoint x="260" y="220" />
              <mxPoint x="260" y="80" />
              <mxPoint x="310" y="80" />
              <mxPoint x="380" y="80" />
            </Array>
          </mxGeometry>
        </mxCell>
        <mxCell id="J2Iu04j1FfDjSoK0iuVQ-15" value="" style="endArrow=none;html=1;rounded=0;exitX=1;exitY=0.25;exitDx=0;exitDy=0;entryX=0;entryY=0.25;entryDx=0;entryDy=0;strokeColor=#ff0000;" edge="1" parent="1" source="J2Iu04j1FfDjSoK0iuVQ-6" target="J2Iu04j1FfDjSoK0iuVQ-2">
          <mxGeometry width="50" height="50" relative="1" as="geometry">
            <mxPoint x="490" y="330" as="sourcePoint" />
            <mxPoint x="540" y="280" as="targetPoint" />
          </mxGeometry>
        </mxCell>
        <mxCell id="J2Iu04j1FfDjSoK0iuVQ-16" value="" style="endArrow=none;html=1;rounded=0;exitX=1;exitY=0.5;exitDx=0;exitDy=0;entryX=0;entryY=0.5;entryDx=0;entryDy=0;strokeColor=#400000;edgeStyle=orthogonalEdgeStyle;" edge="1" parent="1" source="J2Iu04j1FfDjSoK0iuVQ-6" target="J2Iu04j1FfDjSoK0iuVQ-2">
          <mxGeometry width="50" height="50" relative="1" as="geometry">
            <mxPoint x="420" y="160" as="sourcePoint" />
            <mxPoint x="500" y="160" as="targetPoint" />
          </mxGeometry>
        </mxCell>
        <mxCell id="J2Iu04j1FfDjSoK0iuVQ-17" value="" style="endArrow=none;html=1;rounded=0;exitX=1;exitY=0.75;exitDx=0;exitDy=0;strokeColor=#00ff00;" edge="1" parent="1" source="J2Iu04j1FfDjSoK0iuVQ-2">
          <mxGeometry width="50" height="50" relative="1" as="geometry">
            <mxPoint x="490" y="330" as="sourcePoint" />
            <mxPoint x="930" y="250" as="targetPoint" />
            <Array as="points">
              <mxPoint x="580" y="190" />
              <mxPoint x="580" y="250" />
            </Array>
          </mxGeometry>
        </mxCell>
        <mxCell id="J2Iu04j1FfDjSoK0iuVQ-56" value="SDA" style="edgeLabel;html=1;align=center;verticalAlign=middle;resizable=0;points=[];" connectable="0" vertex="1" parent="J2Iu04j1FfDjSoK0iuVQ-17">
          <mxGeometry x="-0.2442" y="-2" relative="1" as="geometry">
            <mxPoint x="73" y="-2" as="offset" />
          </mxGeometry>
        </mxCell>
        <mxCell id="J2Iu04j1FfDjSoK0iuVQ-18" value="" style="endArrow=none;html=1;rounded=0;exitX=1;exitY=0.5;exitDx=0;exitDy=0;strokeColor=#ff0000;" edge="1" parent="1" source="J2Iu04j1FfDjSoK0iuVQ-2">
          <mxGeometry width="50" height="50" relative="1" as="geometry">
            <mxPoint x="490" y="330" as="sourcePoint" />
            <mxPoint x="600" y="230" as="targetPoint" />
            <Array as="points">
              <mxPoint x="600" y="170" />
              <mxPoint x="600" y="200" />
              <mxPoint x="600" y="230" />
              <mxPoint x="950" y="230" />
            </Array>
          </mxGeometry>
        </mxCell>
        <mxCell id="J2Iu04j1FfDjSoK0iuVQ-52" value="5V" style="edgeLabel;html=1;align=center;verticalAlign=middle;resizable=0;points=[];" connectable="0" vertex="1" parent="J2Iu04j1FfDjSoK0iuVQ-18">
          <mxGeometry x="0.9108" y="1" relative="1" as="geometry">
            <mxPoint x="50" as="offset" />
          </mxGeometry>
        </mxCell>
        <mxCell id="J2Iu04j1FfDjSoK0iuVQ-19" value="" style="endArrow=none;html=1;rounded=0;exitX=1.013;exitY=0.613;exitDx=0;exitDy=0;exitPerimeter=0;strokeColor=#ffff00;" edge="1" parent="1" source="J2Iu04j1FfDjSoK0iuVQ-2">
          <mxGeometry width="50" height="50" relative="1" as="geometry">
            <mxPoint x="580" y="180" as="sourcePoint" />
            <mxPoint x="940" y="240" as="targetPoint" />
            <Array as="points">
              <mxPoint x="590" y="180" />
              <mxPoint x="590" y="220" />
              <mxPoint x="590" y="240" />
            </Array>
          </mxGeometry>
        </mxCell>
        <mxCell id="J2Iu04j1FfDjSoK0iuVQ-55" value="SCA" style="edgeLabel;html=1;align=center;verticalAlign=middle;resizable=0;points=[];" connectable="0" vertex="1" parent="J2Iu04j1FfDjSoK0iuVQ-19">
          <mxGeometry x="-0.2862" relative="1" as="geometry">
            <mxPoint x="35" as="offset" />
          </mxGeometry>
        </mxCell>
        <mxCell id="J2Iu04j1FfDjSoK0iuVQ-20" value="" style="endArrow=none;html=1;rounded=0;exitX=1.013;exitY=0.863;exitDx=0;exitDy=0;exitPerimeter=0;" edge="1" parent="1" source="J2Iu04j1FfDjSoK0iuVQ-2">
          <mxGeometry width="50" height="50" relative="1" as="geometry">
            <mxPoint x="490" y="330" as="sourcePoint" />
            <mxPoint x="920" y="260" as="targetPoint" />
            <Array as="points">
              <mxPoint x="571" y="260" />
            </Array>
          </mxGeometry>
        </mxCell>
        <mxCell id="J2Iu04j1FfDjSoK0iuVQ-53" value="GND" style="edgeLabel;html=1;align=center;verticalAlign=middle;resizable=0;points=[];" connectable="0" vertex="1" parent="J2Iu04j1FfDjSoK0iuVQ-20">
          <mxGeometry x="-0.223" y="-1" relative="1" as="geometry">
            <mxPoint x="50" as="offset" />
          </mxGeometry>
        </mxCell>
        <mxCell id="J2Iu04j1FfDjSoK0iuVQ-32" value="&lt;div&gt;Drive&lt;br&gt;&lt;/div&gt;&lt;div&gt;Board&lt;br&gt;&lt;/div&gt;" style="whiteSpace=wrap;html=1;aspect=fixed;" vertex="1" parent="1">
          <mxGeometry x="660" y="130" width="80" height="80" as="geometry" />
        </mxCell>
        <mxCell id="J2Iu04j1FfDjSoK0iuVQ-33" value="" style="endArrow=none;html=1;rounded=0;exitX=1;exitY=0.75;exitDx=0;exitDy=0;strokeColor=#00ff00;" edge="1" parent="1" source="J2Iu04j1FfDjSoK0iuVQ-32">
          <mxGeometry width="50" height="50" relative="1" as="geometry">
            <mxPoint x="660" y="330" as="sourcePoint" />
            <mxPoint x="750" y="250" as="targetPoint" />
            <Array as="points">
              <mxPoint x="750" y="190" />
              <mxPoint x="750" y="230" />
            </Array>
          </mxGeometry>
        </mxCell>
        <mxCell id="J2Iu04j1FfDjSoK0iuVQ-34" value="" style="endArrow=none;html=1;rounded=0;exitX=1;exitY=0.5;exitDx=0;exitDy=0;strokeColor=#ff0000;" edge="1" parent="1" source="J2Iu04j1FfDjSoK0iuVQ-32">
          <mxGeometry width="50" height="50" relative="1" as="geometry">
            <mxPoint x="660" y="330" as="sourcePoint" />
            <mxPoint x="770" y="230" as="targetPoint" />
            <Array as="points">
              <mxPoint x="770" y="170" />
              <mxPoint x="770" y="230" />
            </Array>
          </mxGeometry>
        </mxCell>
        <mxCell id="J2Iu04j1FfDjSoK0iuVQ-35" value="" style="endArrow=none;html=1;rounded=0;exitX=1.013;exitY=0.613;exitDx=0;exitDy=0;exitPerimeter=0;strokeColor=#ffff00;" edge="1" parent="1" source="J2Iu04j1FfDjSoK0iuVQ-32">
          <mxGeometry width="50" height="50" relative="1" as="geometry">
            <mxPoint x="750" y="180" as="sourcePoint" />
            <mxPoint x="760" y="230" as="targetPoint" />
            <Array as="points">
              <mxPoint x="760" y="180" />
              <mxPoint x="760" y="220" />
              <mxPoint x="760" y="240" />
            </Array>
          </mxGeometry>
        </mxCell>
        <mxCell id="J2Iu04j1FfDjSoK0iuVQ-36" value="" style="endArrow=none;html=1;rounded=0;exitX=1.013;exitY=0.863;exitDx=0;exitDy=0;exitPerimeter=0;" edge="1" parent="1" source="J2Iu04j1FfDjSoK0iuVQ-32">
          <mxGeometry width="50" height="50" relative="1" as="geometry">
            <mxPoint x="660" y="330" as="sourcePoint" />
            <mxPoint x="740" y="260" as="targetPoint" />
            <Array as="points" />
          </mxGeometry>
        </mxCell>
        <mxCell id="J2Iu04j1FfDjSoK0iuVQ-47" value="&lt;div&gt;Turret&lt;br&gt;&lt;/div&gt;&lt;div&gt;Board&lt;br&gt;&lt;/div&gt;" style="whiteSpace=wrap;html=1;aspect=fixed;" vertex="1" parent="1">
          <mxGeometry x="840" y="130" width="80" height="80" as="geometry" />
        </mxCell>
        <mxCell id="J2Iu04j1FfDjSoK0iuVQ-48" value="" style="endArrow=none;html=1;rounded=0;exitX=1;exitY=0.75;exitDx=0;exitDy=0;strokeColor=#00ff00;" edge="1" parent="1" source="J2Iu04j1FfDjSoK0iuVQ-47">
          <mxGeometry width="50" height="50" relative="1" as="geometry">
            <mxPoint x="840" y="330" as="sourcePoint" />
            <mxPoint x="930" y="250" as="targetPoint" />
            <Array as="points">
              <mxPoint x="930" y="190" />
              <mxPoint x="930" y="230" />
            </Array>
          </mxGeometry>
        </mxCell>
        <mxCell id="J2Iu04j1FfDjSoK0iuVQ-49" value="" style="endArrow=none;html=1;rounded=0;exitX=1;exitY=0.5;exitDx=0;exitDy=0;strokeColor=#ff0000;" edge="1" parent="1" source="J2Iu04j1FfDjSoK0iuVQ-47">
          <mxGeometry width="50" height="50" relative="1" as="geometry">
            <mxPoint x="840" y="330" as="sourcePoint" />
            <mxPoint x="950" y="230" as="targetPoint" />
            <Array as="points">
              <mxPoint x="950" y="170" />
              <mxPoint x="950" y="230" />
            </Array>
          </mxGeometry>
        </mxCell>
        <mxCell id="J2Iu04j1FfDjSoK0iuVQ-50" value="" style="endArrow=none;html=1;rounded=0;exitX=1.013;exitY=0.613;exitDx=0;exitDy=0;exitPerimeter=0;strokeColor=#ffff00;" edge="1" parent="1" source="J2Iu04j1FfDjSoK0iuVQ-47">
          <mxGeometry width="50" height="50" relative="1" as="geometry">
            <mxPoint x="930" y="180" as="sourcePoint" />
            <mxPoint x="940" y="230" as="targetPoint" />
            <Array as="points">
              <mxPoint x="940" y="180" />
              <mxPoint x="940" y="220" />
              <mxPoint x="940" y="240" />
            </Array>
          </mxGeometry>
        </mxCell>
        <mxCell id="J2Iu04j1FfDjSoK0iuVQ-51" value="" style="endArrow=none;html=1;rounded=0;exitX=1.013;exitY=0.863;exitDx=0;exitDy=0;exitPerimeter=0;" edge="1" parent="1" source="J2Iu04j1FfDjSoK0iuVQ-47">
          <mxGeometry width="50" height="50" relative="1" as="geometry">
            <mxPoint x="840" y="330" as="sourcePoint" />
            <mxPoint x="920" y="260" as="targetPoint" />
            <Array as="points" />
          </mxGeometry>
        </mxCell>
        <mxCell id="J2Iu04j1FfDjSoK0iuVQ-58" value="Sensor PWR Board" style="rounded=0;whiteSpace=wrap;html=1;" vertex="1" parent="1">
          <mxGeometry x="320" y="280" width="120" height="60" as="geometry" />
        </mxCell>
        <mxCell id="J2Iu04j1FfDjSoK0iuVQ-59" value="" style="endArrow=none;html=1;rounded=0;strokeColor=#400000;edgeStyle=orthogonalEdgeStyle;" edge="1" parent="1" target="J2Iu04j1FfDjSoK0iuVQ-58">
          <mxGeometry width="50" height="50" relative="1" as="geometry">
            <mxPoint x="460" y="170" as="sourcePoint" />
            <mxPoint x="480" y="290" as="targetPoint" />
            <Array as="points">
              <mxPoint x="460" y="293" />
            </Array>
          </mxGeometry>
        </mxCell>
        <mxCell id="J2Iu04j1FfDjSoK0iuVQ-60" value="" style="endArrow=none;html=1;rounded=0;strokeColor=#ff0000;entryX=1.016;entryY=0.433;entryDx=0;entryDy=0;entryPerimeter=0;" edge="1" parent="1" target="J2Iu04j1FfDjSoK0iuVQ-58">
          <mxGeometry width="50" height="50" relative="1" as="geometry">
            <mxPoint x="470" y="150" as="sourcePoint" />
            <mxPoint x="470" y="320" as="targetPoint" />
            <Array as="points">
              <mxPoint x="470" y="306" />
            </Array>
          </mxGeometry>
        </mxCell>
        <mxCell id="J2Iu04j1FfDjSoK0iuVQ-61" value="&lt;div&gt;UART&lt;/div&gt;&lt;div&gt;Board&lt;br&gt;&lt;/div&gt;" style="rounded=0;whiteSpace=wrap;html=1;" vertex="1" parent="1">
          <mxGeometry x="490" y="10" width="80" height="90" as="geometry" />
        </mxCell>
        <mxCell id="J2Iu04j1FfDjSoK0iuVQ-62" value="XBEE" style="rounded=0;whiteSpace=wrap;html=1;" vertex="1" parent="1">
          <mxGeometry x="600" y="60" width="120" height="40" as="geometry" />
        </mxCell>
        <mxCell id="J2Iu04j1FfDjSoK0iuVQ-64" value="Bluetooth" style="rounded=0;whiteSpace=wrap;html=1;" vertex="1" parent="1">
          <mxGeometry x="600" y="10" width="120" height="40" as="geometry" />
        </mxCell>
        <mxCell id="J2Iu04j1FfDjSoK0iuVQ-66" value="" style="endArrow=none;html=1;rounded=0;exitX=0.25;exitY=0;exitDx=0;exitDy=0;entryX=0.25;entryY=1;entryDx=0;entryDy=0;strokeColor=#ff0000;" edge="1" parent="1" source="J2Iu04j1FfDjSoK0iuVQ-2" target="J2Iu04j1FfDjSoK0iuVQ-61">
          <mxGeometry width="50" height="50" relative="1" as="geometry">
            <mxPoint x="600" y="260" as="sourcePoint" />
            <mxPoint x="650" y="210" as="targetPoint" />
          </mxGeometry>
        </mxCell>
        <mxCell id="J2Iu04j1FfDjSoK0iuVQ-67" value="" style="endArrow=none;html=1;rounded=0;entryX=0.365;entryY=0.996;entryDx=0;entryDy=0;entryPerimeter=0;exitX=0.375;exitY=0.006;exitDx=0;exitDy=0;exitPerimeter=0;strokeColor=#00ff00;" edge="1" parent="1" source="J2Iu04j1FfDjSoK0iuVQ-2" target="J2Iu04j1FfDjSoK0iuVQ-61">
          <mxGeometry width="50" height="50" relative="1" as="geometry">
            <mxPoint x="530" y="130" as="sourcePoint" />
            <mxPoint x="520" y="110" as="targetPoint" />
          </mxGeometry>
        </mxCell>
        <mxCell id="J2Iu04j1FfDjSoK0iuVQ-69" value="" style="endArrow=none;html=1;rounded=0;entryX=0.5;entryY=1;entryDx=0;entryDy=0;strokeColor=#ffff00;" edge="1" parent="1" target="J2Iu04j1FfDjSoK0iuVQ-61">
          <mxGeometry width="50" height="50" relative="1" as="geometry">
            <mxPoint x="530" y="130" as="sourcePoint" />
            <mxPoint x="529" y="110" as="targetPoint" />
          </mxGeometry>
        </mxCell>
        <mxCell id="J2Iu04j1FfDjSoK0iuVQ-70" value="" style="endArrow=none;html=1;rounded=0;entryX=0.629;entryY=1.006;entryDx=0;entryDy=0;entryPerimeter=0;exitX=0.627;exitY=0.01;exitDx=0;exitDy=0;exitPerimeter=0;" edge="1" parent="1" source="J2Iu04j1FfDjSoK0iuVQ-2" target="J2Iu04j1FfDjSoK0iuVQ-61">
          <mxGeometry width="50" height="50" relative="1" as="geometry">
            <mxPoint x="540" y="130" as="sourcePoint" />
            <mxPoint x="539" y="120" as="targetPoint" />
          </mxGeometry>
        </mxCell>
        <mxCell id="J2Iu04j1FfDjSoK0iuVQ-71" value="" style="endArrow=none;html=1;rounded=0;entryX=0;entryY=0.92;entryDx=0;entryDy=0;entryPerimeter=0;exitX=1.006;exitY=0.965;exitDx=0;exitDy=0;exitPerimeter=0;strokeColor=#804040;" edge="1" parent="1" source="J2Iu04j1FfDjSoK0iuVQ-61" target="J2Iu04j1FfDjSoK0iuVQ-62">
          <mxGeometry width="50" height="50" relative="1" as="geometry">
            <mxPoint x="550" y="141" as="sourcePoint" />
            <mxPoint x="550" y="111" as="targetPoint" />
          </mxGeometry>
        </mxCell>
        <mxCell id="J2Iu04j1FfDjSoK0iuVQ-72" value="" style="endArrow=none;html=1;rounded=0;entryX=0.008;entryY=0.896;entryDx=0;entryDy=0;entryPerimeter=0;exitX=1.006;exitY=0.393;exitDx=0;exitDy=0;exitPerimeter=0;strokeColor=#ff0000;" edge="1" parent="1" source="J2Iu04j1FfDjSoK0iuVQ-61" target="J2Iu04j1FfDjSoK0iuVQ-64">
          <mxGeometry width="50" height="50" relative="1" as="geometry">
            <mxPoint x="580" y="107" as="sourcePoint" />
            <mxPoint x="610" y="107" as="targetPoint" />
          </mxGeometry>
        </mxCell>
        <mxCell id="J2Iu04j1FfDjSoK0iuVQ-73" value="" style="endArrow=none;html=1;rounded=0;entryX=0;entryY=0.75;entryDx=0;entryDy=0;exitX=1.024;exitY=0.324;exitDx=0;exitDy=0;exitPerimeter=0;strokeColor=#ff8040;" edge="1" parent="1" source="J2Iu04j1FfDjSoK0iuVQ-61" target="J2Iu04j1FfDjSoK0iuVQ-64">
          <mxGeometry width="50" height="50" relative="1" as="geometry">
            <mxPoint x="580" y="55" as="sourcePoint" />
            <mxPoint x="611" y="56" as="targetPoint" />
          </mxGeometry>
        </mxCell>
        <mxCell id="J2Iu04j1FfDjSoK0iuVQ-74" value="" style="endArrow=none;html=1;rounded=0;entryX=0;entryY=0.5;entryDx=0;entryDy=0;exitX=1.03;exitY=0.219;exitDx=0;exitDy=0;strokeColor=#ffff00;exitPerimeter=0;" edge="1" parent="1" source="J2Iu04j1FfDjSoK0iuVQ-61" target="J2Iu04j1FfDjSoK0iuVQ-64">
          <mxGeometry width="50" height="50" relative="1" as="geometry">
            <mxPoint x="580" y="55" as="sourcePoint" />
            <mxPoint x="611" y="56" as="targetPoint" />
          </mxGeometry>
        </mxCell>
        <mxCell id="J2Iu04j1FfDjSoK0iuVQ-75" value="" style="endArrow=none;html=1;rounded=0;entryX=0;entryY=0.25;entryDx=0;entryDy=0;exitX=1.018;exitY=0.118;exitDx=0;exitDy=0;exitPerimeter=0;strokeColor=#00ff00;" edge="1" parent="1" source="J2Iu04j1FfDjSoK0iuVQ-61" target="J2Iu04j1FfDjSoK0iuVQ-64">
          <mxGeometry width="50" height="50" relative="1" as="geometry">
            <mxPoint x="530" y="140" as="sourcePoint" />
            <mxPoint x="529" y="110" as="targetPoint" />
          </mxGeometry>
        </mxCell>
        <mxCell id="J2Iu04j1FfDjSoK0iuVQ-77" value="" style="endArrow=none;html=1;rounded=0;entryX=0;entryY=0.75;entryDx=0;entryDy=0;exitX=1.012;exitY=0.885;exitDx=0;exitDy=0;exitPerimeter=0;strokeColor=#ff0000;" edge="1" parent="1" source="J2Iu04j1FfDjSoK0iuVQ-61" target="J2Iu04j1FfDjSoK0iuVQ-62">
          <mxGeometry width="50" height="50" relative="1" as="geometry">
            <mxPoint x="580" y="107" as="sourcePoint" />
            <mxPoint x="610" y="107" as="targetPoint" />
          </mxGeometry>
        </mxCell>
        <mxCell id="J2Iu04j1FfDjSoK0iuVQ-78" value="" style="endArrow=none;html=1;rounded=0;entryX=-0.016;entryY=0.587;entryDx=0;entryDy=0;exitX=1.006;exitY=0.811;exitDx=0;exitDy=0;exitPerimeter=0;strokeColor=#ff8040;entryPerimeter=0;" edge="1" parent="1" source="J2Iu04j1FfDjSoK0iuVQ-61" target="J2Iu04j1FfDjSoK0iuVQ-62">
          <mxGeometry width="50" height="50" relative="1" as="geometry">
            <mxPoint x="581" y="100" as="sourcePoint" />
            <mxPoint x="610" y="100" as="targetPoint" />
          </mxGeometry>
        </mxCell>
        <mxCell id="J2Iu04j1FfDjSoK0iuVQ-79" value="" style="endArrow=none;html=1;rounded=0;exitX=1;exitY=0.75;exitDx=0;exitDy=0;strokeColor=#ffff00;" edge="1" parent="1" source="J2Iu04j1FfDjSoK0iuVQ-61" target="J2Iu04j1FfDjSoK0iuVQ-62">
          <mxGeometry width="50" height="50" relative="1" as="geometry">
            <mxPoint x="580" y="93" as="sourcePoint" />
            <mxPoint x="608" y="93" as="targetPoint" />
          </mxGeometry>
        </mxCell>
        <mxCell id="J2Iu04j1FfDjSoK0iuVQ-80" value="" style="endArrow=none;html=1;rounded=0;entryX=0.012;entryY=0.337;entryDx=0;entryDy=0;entryPerimeter=0;strokeColor=#00ff00;" edge="1" parent="1" target="J2Iu04j1FfDjSoK0iuVQ-62">
          <mxGeometry width="50" height="50" relative="1" as="geometry">
            <mxPoint x="570" y="73" as="sourcePoint" />
            <mxPoint x="610" y="107" as="targetPoint" />
          </mxGeometry>
        </mxCell>
        <mxCell id="J2Iu04j1FfDjSoK0iuVQ-81" value="" style="endArrow=none;html=1;rounded=0;entryX=0.008;entryY=0.17;entryDx=0;entryDy=0;entryPerimeter=0;strokeColor=#0000ff;exitX=1.018;exitY=0.631;exitDx=0;exitDy=0;exitPerimeter=0;" edge="1" parent="1" source="J2Iu04j1FfDjSoK0iuVQ-61" target="J2Iu04j1FfDjSoK0iuVQ-62">
          <mxGeometry width="50" height="50" relative="1" as="geometry">
            <mxPoint x="580" y="83" as="sourcePoint" />
            <mxPoint x="611" y="83" as="targetPoint" />
          </mxGeometry>
        </mxCell>
        <mxCell id="J2Iu04j1FfDjSoK0iuVQ-82" value="Relay" style="rounded=0;whiteSpace=wrap;html=1;" vertex="1" parent="1">
          <mxGeometry x="130" y="370" width="80" height="90" as="geometry" />
        </mxCell>
        <mxCell id="J2Iu04j1FfDjSoK0iuVQ-83" value="" style="endArrow=none;html=1;rounded=0;exitX=0;exitY=0.821;exitDx=0;exitDy=0;exitPerimeter=0;entryX=-0.014;entryY=0.057;entryDx=0;entryDy=0;entryPerimeter=0;strokeColor=#ff0000;" edge="1" parent="1" source="J2Iu04j1FfDjSoK0iuVQ-4" target="J2Iu04j1FfDjSoK0iuVQ-82">
          <mxGeometry width="50" height="50" relative="1" as="geometry">
            <mxPoint x="310" y="310" as="sourcePoint" />
            <mxPoint x="360" y="260" as="targetPoint" />
            <Array as="points">
              <mxPoint x="110" y="276" />
              <mxPoint x="110" y="320" />
              <mxPoint x="110" y="375" />
            </Array>
          </mxGeometry>
        </mxCell>
        <mxCell id="J2Iu04j1FfDjSoK0iuVQ-84" value="" style="endArrow=none;html=1;rounded=0;exitX=0;exitY=0.75;exitDx=0;exitDy=0;" edge="1" parent="1" source="J2Iu04j1FfDjSoK0iuVQ-4">
          <mxGeometry width="50" height="50" relative="1" as="geometry">
            <mxPoint x="140" y="286" as="sourcePoint" />
            <mxPoint x="130" y="385" as="targetPoint" />
            <Array as="points">
              <mxPoint x="100" y="270" />
              <mxPoint x="100" y="340" />
              <mxPoint x="100" y="385" />
            </Array>
          </mxGeometry>
        </mxCell>
        <mxCell id="J2Iu04j1FfDjSoK0iuVQ-85" value="" style="endArrow=none;html=1;rounded=0;exitX=-0.008;exitY=0.629;exitDx=0;exitDy=0;exitPerimeter=0;entryX=0;entryY=0.5;entryDx=0;entryDy=0;strokeColor=#ff0000;" edge="1" parent="1" source="J2Iu04j1FfDjSoK0iuVQ-4" target="J2Iu04j1FfDjSoK0iuVQ-82">
          <mxGeometry width="50" height="50" relative="1" as="geometry">
            <mxPoint x="140" y="286" as="sourcePoint" />
            <mxPoint x="139" y="385" as="targetPoint" />
            <Array as="points">
              <mxPoint x="90" y="260" />
              <mxPoint x="90" y="330" />
              <mxPoint x="90" y="415" />
            </Array>
          </mxGeometry>
        </mxCell>
        <mxCell id="J2Iu04j1FfDjSoK0iuVQ-86" value="" style="endArrow=none;html=1;rounded=0;exitX=0;exitY=0.5;exitDx=0;exitDy=0;" edge="1" parent="1" source="J2Iu04j1FfDjSoK0iuVQ-4">
          <mxGeometry width="50" height="50" relative="1" as="geometry">
            <mxPoint x="139" y="270" as="sourcePoint" />
            <mxPoint x="130" y="425" as="targetPoint" />
            <Array as="points">
              <mxPoint x="80" y="250" />
              <mxPoint x="80" y="350" />
              <mxPoint x="80" y="425" />
            </Array>
          </mxGeometry>
        </mxCell>
        <mxCell id="J2Iu04j1FfDjSoK0iuVQ-89" value="" style="endArrow=none;html=1;rounded=0;exitX=0.996;exitY=0.131;exitDx=0;exitDy=0;entryX=-0.017;entryY=0.871;entryDx=0;entryDy=0;entryPerimeter=0;strokeColor=#ff0000;exitPerimeter=0;" edge="1" parent="1" source="J2Iu04j1FfDjSoK0iuVQ-82" target="J2Iu04j1FfDjSoK0iuVQ-32">
          <mxGeometry width="50" height="50" relative="1" as="geometry">
            <mxPoint x="280" y="360" as="sourcePoint" />
            <mxPoint x="640" y="180" as="targetPoint" />
            <Array as="points">
              <mxPoint x="640" y="380" />
              <mxPoint x="640" y="200" />
            </Array>
          </mxGeometry>
        </mxCell>
        <mxCell id="J2Iu04j1FfDjSoK0iuVQ-90" value="Drive-RD7" style="edgeLabel;html=1;align=center;verticalAlign=middle;resizable=0;points=[];" connectable="0" vertex="1" parent="J2Iu04j1FfDjSoK0iuVQ-89">
          <mxGeometry x="-0.1753" y="2" relative="1" as="geometry">
            <mxPoint as="offset" />
          </mxGeometry>
        </mxCell>
        <mxCell id="J2Iu04j1FfDjSoK0iuVQ-92" value="&lt;div&gt;12V Cooling&lt;/div&gt;&lt;div&gt;Fan&lt;br&gt;&lt;/div&gt;" style="rounded=0;whiteSpace=wrap;html=1;" vertex="1" parent="1">
          <mxGeometry x="20" y="480" width="120" height="60" as="geometry" />
        </mxCell>
        <mxCell id="J2Iu04j1FfDjSoK0iuVQ-93" value="&lt;div&gt;12V Air&lt;/div&gt;&lt;div&gt;Compressor&lt;br&gt;&lt;/div&gt;" style="rounded=0;whiteSpace=wrap;html=1;" vertex="1" parent="1">
          <mxGeometry x="20" y="560" width="120" height="60" as="geometry" />
        </mxCell>
        <mxCell id="J2Iu04j1FfDjSoK0iuVQ-94" value="" style="endArrow=none;html=1;rounded=0;entryX=0.589;entryY=0.993;entryDx=0;entryDy=0;entryPerimeter=0;exitX=1;exitY=0.75;exitDx=0;exitDy=0;" edge="1" parent="1" source="J2Iu04j1FfDjSoK0iuVQ-93" target="J2Iu04j1FfDjSoK0iuVQ-82">
          <mxGeometry width="50" height="50" relative="1" as="geometry">
            <mxPoint x="177" y="590" as="sourcePoint" />
            <mxPoint x="550" y="370" as="targetPoint" />
            <Array as="points">
              <mxPoint x="177" y="605" />
            </Array>
          </mxGeometry>
        </mxCell>
        <mxCell id="J2Iu04j1FfDjSoK0iuVQ-95" value="" style="endArrow=none;html=1;rounded=0;entryX=0.75;entryY=1;entryDx=0;entryDy=0;exitX=1;exitY=0.5;exitDx=0;exitDy=0;strokeColor=#ff0000;" edge="1" parent="1" source="J2Iu04j1FfDjSoK0iuVQ-93" target="J2Iu04j1FfDjSoK0iuVQ-82">
          <mxGeometry width="50" height="50" relative="1" as="geometry">
            <mxPoint x="230" y="615" as="sourcePoint" />
            <mxPoint x="187" y="469" as="targetPoint" />
            <Array as="points">
              <mxPoint x="190" y="590" />
            </Array>
          </mxGeometry>
        </mxCell>
        <mxCell id="J2Iu04j1FfDjSoK0iuVQ-96" value="" style="endArrow=none;html=1;rounded=0;exitX=1;exitY=0.25;exitDx=0;exitDy=0;strokeColor=#ff0000;" edge="1" parent="1" source="J2Iu04j1FfDjSoK0iuVQ-92">
          <mxGeometry width="50" height="50" relative="1" as="geometry">
            <mxPoint x="390" y="440" as="sourcePoint" />
            <mxPoint x="190" y="495" as="targetPoint" />
          </mxGeometry>
        </mxCell>
        <mxCell id="J2Iu04j1FfDjSoK0iuVQ-99" value="" style="endArrow=none;html=1;rounded=0;entryX=1;entryY=0.5;entryDx=0;entryDy=0;" edge="1" parent="1" target="J2Iu04j1FfDjSoK0iuVQ-92">
          <mxGeometry width="50" height="50" relative="1" as="geometry">
            <mxPoint x="180" y="510" as="sourcePoint" />
            <mxPoint x="440" y="390" as="targetPoint" />
          </mxGeometry>
        </mxCell>
        <mxCell id="J2Iu04j1FfDjSoK0iuVQ-100" value="Servo Brake Out Board" style="rounded=0;whiteSpace=wrap;html=1;" vertex="1" parent="1">
          <mxGeometry x="810" y="400" width="120" height="60" as="geometry" />
        </mxCell>
        <mxCell id="J2Iu04j1FfDjSoK0iuVQ-101" value="" style="endArrow=none;html=1;rounded=0;entryX=0.5;entryY=1;entryDx=0;entryDy=0;exitX=0;exitY=0.5;exitDx=0;exitDy=0;" edge="1" parent="1" source="J2Iu04j1FfDjSoK0iuVQ-100" target="J2Iu04j1FfDjSoK0iuVQ-7">
          <mxGeometry width="50" height="50" relative="1" as="geometry">
            <mxPoint x="300" y="440" as="sourcePoint" />
            <mxPoint x="560" y="310" as="targetPoint" />
            <Array as="points">
              <mxPoint x="300" y="430" />
            </Array>
          </mxGeometry>
        </mxCell>
        <mxCell id="J2Iu04j1FfDjSoK0iuVQ-102" value="" style="endArrow=none;html=1;rounded=0;entryX=0.75;entryY=1;entryDx=0;entryDy=0;strokeColor=#ff0000;exitX=0;exitY=0.25;exitDx=0;exitDy=0;" edge="1" parent="1" source="J2Iu04j1FfDjSoK0iuVQ-100" target="J2Iu04j1FfDjSoK0iuVQ-7">
          <mxGeometry width="50" height="50" relative="1" as="geometry">
            <mxPoint x="310" y="450" as="sourcePoint" />
            <mxPoint x="310" y="220" as="targetPoint" />
            <Array as="points">
              <mxPoint x="310" y="415" />
            </Array>
          </mxGeometry>
        </mxCell>
        <mxCell id="J2Iu04j1FfDjSoK0iuVQ-103" value="&lt;div&gt;Sensor &lt;br&gt;&lt;/div&gt;&lt;div&gt;Fuse Pannel&lt;br&gt;&lt;/div&gt;" style="whiteSpace=wrap;html=1;aspect=fixed;" vertex="1" parent="1">
          <mxGeometry x="810" y="480" width="80" height="80" as="geometry" />
        </mxCell>
        <mxCell id="J2Iu04j1FfDjSoK0iuVQ-104" value="" style="endArrow=none;html=1;rounded=0;exitX=0.25;exitY=0;exitDx=0;exitDy=0;entryX=0.16;entryY=1.01;entryDx=0;entryDy=0;entryPerimeter=0;" edge="1" parent="1" source="J2Iu04j1FfDjSoK0iuVQ-103" target="J2Iu04j1FfDjSoK0iuVQ-100">
          <mxGeometry width="50" height="50" relative="1" as="geometry">
            <mxPoint x="910" y="420" as="sourcePoint" />
            <mxPoint x="960" y="370" as="targetPoint" />
          </mxGeometry>
        </mxCell>
        <mxCell id="J2Iu04j1FfDjSoK0iuVQ-105" value="" style="endArrow=none;html=1;rounded=0;exitX=0.364;exitY=0.022;exitDx=0;exitDy=0;exitPerimeter=0;entryX=0.25;entryY=1;entryDx=0;entryDy=0;strokeColor=#ff0000;" edge="1" parent="1" source="J2Iu04j1FfDjSoK0iuVQ-103" target="J2Iu04j1FfDjSoK0iuVQ-100">
          <mxGeometry width="50" height="50" relative="1" as="geometry">
            <mxPoint x="840" y="490" as="sourcePoint" />
            <mxPoint x="970" y="490" as="targetPoint" />
          </mxGeometry>
        </mxCell>
        <mxCell id="J2Iu04j1FfDjSoK0iuVQ-106" value="" style="endArrow=none;html=1;rounded=0;exitX=0.75;exitY=0;exitDx=0;exitDy=0;entryX=0.5;entryY=1;entryDx=0;entryDy=0;" edge="1" parent="1" source="J2Iu04j1FfDjSoK0iuVQ-103" target="J2Iu04j1FfDjSoK0iuVQ-100">
          <mxGeometry width="50" height="50" relative="1" as="geometry">
            <mxPoint x="840" y="490" as="sourcePoint" />
            <mxPoint x="839" y="471" as="targetPoint" />
          </mxGeometry>
        </mxCell>
        <mxCell id="J2Iu04j1FfDjSoK0iuVQ-107" value="" style="endArrow=none;html=1;rounded=0;exitX=0.875;exitY=-0.01;exitDx=0;exitDy=0;exitPerimeter=0;entryX=0.587;entryY=1.001;entryDx=0;entryDy=0;strokeColor=#ff0000;entryPerimeter=0;" edge="1" parent="1" source="J2Iu04j1FfDjSoK0iuVQ-103" target="J2Iu04j1FfDjSoK0iuVQ-100">
          <mxGeometry width="50" height="50" relative="1" as="geometry">
            <mxPoint x="849" y="492" as="sourcePoint" />
            <mxPoint x="850" y="470" as="targetPoint" />
          </mxGeometry>
        </mxCell>
        <mxCell id="J2Iu04j1FfDjSoK0iuVQ-108" value="Stering Servo" style="rounded=0;whiteSpace=wrap;html=1;" vertex="1" parent="1">
          <mxGeometry x="980" y="470" width="110" height="40" as="geometry" />
        </mxCell>
        <mxCell id="J2Iu04j1FfDjSoK0iuVQ-109" value="" style="endArrow=none;html=1;rounded=0;exitX=1;exitY=0.75;exitDx=0;exitDy=0;entryX=0;entryY=0.5;entryDx=0;entryDy=0;strokeColor=#ff0000;" edge="1" parent="1" source="J2Iu04j1FfDjSoK0iuVQ-100" target="J2Iu04j1FfDjSoK0iuVQ-108">
          <mxGeometry width="50" height="50" relative="1" as="geometry">
            <mxPoint x="890" y="489" as="sourcePoint" />
            <mxPoint x="890" y="470" as="targetPoint" />
            <Array as="points">
              <mxPoint x="950" y="445" />
              <mxPoint x="950" y="490" />
            </Array>
          </mxGeometry>
        </mxCell>
        <mxCell id="J2Iu04j1FfDjSoK0iuVQ-110" value="" style="endArrow=none;html=1;rounded=0;exitX=0.983;exitY=0.904;exitDx=0;exitDy=0;entryX=0;entryY=0.75;entryDx=0;entryDy=0;strokeColor=#000000;exitPerimeter=0;" edge="1" parent="1" source="J2Iu04j1FfDjSoK0iuVQ-100" target="J2Iu04j1FfDjSoK0iuVQ-108">
          <mxGeometry width="50" height="50" relative="1" as="geometry">
            <mxPoint x="940" y="455" as="sourcePoint" />
            <mxPoint x="990" y="500" as="targetPoint" />
            <Array as="points">
              <mxPoint x="940" y="455" />
              <mxPoint x="940" y="500" />
            </Array>
          </mxGeometry>
        </mxCell>
        <mxCell id="J2Iu04j1FfDjSoK0iuVQ-111" value="" style="endArrow=none;html=1;rounded=0;exitX=1;exitY=0.5;exitDx=0;exitDy=0;entryX=0;entryY=0.25;entryDx=0;entryDy=0;strokeColor=#ffff00;" edge="1" parent="1" source="J2Iu04j1FfDjSoK0iuVQ-100" target="J2Iu04j1FfDjSoK0iuVQ-108">
          <mxGeometry width="50" height="50" relative="1" as="geometry">
            <mxPoint x="940" y="455" as="sourcePoint" />
            <mxPoint x="990" y="500" as="targetPoint" />
            <Array as="points">
              <mxPoint x="960" y="430" />
              <mxPoint x="960" y="480" />
            </Array>
          </mxGeometry>
        </mxCell>
        <mxCell id="J2Iu04j1FfDjSoK0iuVQ-113" value="" style="endArrow=none;html=1;rounded=0;exitX=0.997;exitY=0.119;exitDx=0;exitDy=0;exitPerimeter=0;" edge="1" parent="1" source="J2Iu04j1FfDjSoK0iuVQ-32">
          <mxGeometry width="50" height="50" relative="1" as="geometry">
            <mxPoint x="740" y="156" as="sourcePoint" />
            <mxPoint x="810" y="400" as="targetPoint" />
            <Array as="points">
              <mxPoint x="810" y="140" />
            </Array>
          </mxGeometry>
        </mxCell>
        <mxCell id="J2Iu04j1FfDjSoK0iuVQ-114" value="CCP2" style="edgeLabel;html=1;align=center;verticalAlign=middle;resizable=0;points=[];" connectable="0" vertex="1" parent="J2Iu04j1FfDjSoK0iuVQ-113">
          <mxGeometry x="-0.8589" y="1" relative="1" as="geometry">
            <mxPoint y="1" as="offset" />
          </mxGeometry>
        </mxCell>
        <mxCell id="J2Iu04j1FfDjSoK0iuVQ-115" value="&lt;div&gt;Drive Motor&lt;/div&gt;&lt;div&gt;Controler&lt;br&gt;&lt;/div&gt;" style="rounded=0;whiteSpace=wrap;html=1;" vertex="1" parent="1">
          <mxGeometry x="680" y="450" width="120" height="60" as="geometry" />
        </mxCell>
        <mxCell id="J2Iu04j1FfDjSoK0iuVQ-116" value="" style="endArrow=none;html=1;rounded=0;strokeColor=#ff0000;exitX=0;exitY=0.25;exitDx=0;exitDy=0;entryX=1;entryY=0.75;entryDx=0;entryDy=0;" edge="1" parent="1" source="J2Iu04j1FfDjSoK0iuVQ-115" target="J2Iu04j1FfDjSoK0iuVQ-4">
          <mxGeometry width="50" height="50" relative="1" as="geometry">
            <mxPoint x="800" y="425" as="sourcePoint" />
            <mxPoint x="260" y="270" as="targetPoint" />
            <Array as="points">
              <mxPoint x="260" y="460" />
              <mxPoint x="260" y="270" />
            </Array>
          </mxGeometry>
        </mxCell>
        <mxCell id="J2Iu04j1FfDjSoK0iuVQ-118" value="" style="endArrow=none;html=1;rounded=0;strokeColor=#000000;exitX=0;exitY=0.5;exitDx=0;exitDy=0;entryX=1.002;entryY=0.873;entryDx=0;entryDy=0;entryPerimeter=0;" edge="1" parent="1" source="J2Iu04j1FfDjSoK0iuVQ-115" target="J2Iu04j1FfDjSoK0iuVQ-4">
          <mxGeometry width="50" height="50" relative="1" as="geometry">
            <mxPoint x="670" y="465" as="sourcePoint" />
            <mxPoint x="220" y="280" as="targetPoint" />
            <Array as="points">
              <mxPoint x="240" y="480" />
              <mxPoint x="240" y="280" />
            </Array>
          </mxGeometry>
        </mxCell>
        <mxCell id="J2Iu04j1FfDjSoK0iuVQ-119" value="" style="endArrow=none;html=1;rounded=0;entryX=1;entryY=0.25;entryDx=0;entryDy=0;exitX=1;exitY=0;exitDx=0;exitDy=0;strokeColor=#ffff00;" edge="1" parent="1" source="J2Iu04j1FfDjSoK0iuVQ-115" target="J2Iu04j1FfDjSoK0iuVQ-32">
          <mxGeometry width="50" height="50" relative="1" as="geometry">
            <mxPoint x="770" y="360" as="sourcePoint" />
            <mxPoint x="690" y="300" as="targetPoint" />
            <Array as="points">
              <mxPoint x="800" y="150" />
            </Array>
          </mxGeometry>
        </mxCell>
        <mxCell id="J2Iu04j1FfDjSoK0iuVQ-124" value="CCP1" style="edgeLabel;html=1;align=center;verticalAlign=middle;resizable=0;points=[];" connectable="0" vertex="1" parent="J2Iu04j1FfDjSoK0iuVQ-119">
          <mxGeometry x="0.8639" relative="1" as="geometry">
            <mxPoint as="offset" />
          </mxGeometry>
        </mxCell>
        <mxCell id="J2Iu04j1FfDjSoK0iuVQ-120" value="" style="endArrow=none;html=1;rounded=0;entryX=0.984;entryY=0.351;entryDx=0;entryDy=0;exitX=0.928;exitY=0.007;exitDx=0;exitDy=0;exitPerimeter=0;entryPerimeter=0;strokeColor=#00ff00;" edge="1" parent="1" source="J2Iu04j1FfDjSoK0iuVQ-115" target="J2Iu04j1FfDjSoK0iuVQ-32">
          <mxGeometry width="50" height="50" relative="1" as="geometry">
            <mxPoint x="790" y="460" as="sourcePoint" />
            <mxPoint x="750" y="160" as="targetPoint" />
            <Array as="points">
              <mxPoint x="790" y="160" />
            </Array>
          </mxGeometry>
        </mxCell>
        <mxCell id="J2Iu04j1FfDjSoK0iuVQ-121" value="&lt;div&gt;Drive &lt;br&gt;&lt;/div&gt;&lt;div&gt;Motor&lt;br&gt;&lt;/div&gt;" style="ellipse;whiteSpace=wrap;html=1;aspect=fixed;" vertex="1" parent="1">
          <mxGeometry x="700" y="560" width="80" height="80" as="geometry" />
        </mxCell>
        <mxCell id="J2Iu04j1FfDjSoK0iuVQ-122" value="" style="endArrow=none;html=1;rounded=0;exitX=0;exitY=0;exitDx=0;exitDy=0;entryX=0.25;entryY=1;entryDx=0;entryDy=0;strokeColor=#00ff00;" edge="1" parent="1" source="J2Iu04j1FfDjSoK0iuVQ-121" target="J2Iu04j1FfDjSoK0iuVQ-115">
          <mxGeometry width="50" height="50" relative="1" as="geometry">
            <mxPoint x="670" y="510" as="sourcePoint" />
            <mxPoint x="723" y="510" as="targetPoint" />
          </mxGeometry>
        </mxCell>
        <mxCell id="J2Iu04j1FfDjSoK0iuVQ-123" value="" style="endArrow=none;html=1;rounded=0;exitX=1;exitY=0;exitDx=0;exitDy=0;entryX=0.75;entryY=1;entryDx=0;entryDy=0;" edge="1" parent="1" source="J2Iu04j1FfDjSoK0iuVQ-121" target="J2Iu04j1FfDjSoK0iuVQ-115">
          <mxGeometry width="50" height="50" relative="1" as="geometry">
            <mxPoint x="733" y="576" as="sourcePoint" />
            <mxPoint x="733" y="520" as="targetPoint" />
          </mxGeometry>
        </mxCell>
        <mxCell id="J2Iu04j1FfDjSoK0iuVQ-146" style="edgeStyle=orthogonalEdgeStyle;rounded=0;orthogonalLoop=1;jettySize=auto;html=1;" edge="1" parent="1" source="J2Iu04j1FfDjSoK0iuVQ-125">
          <mxGeometry relative="1" as="geometry">
            <mxPoint x="660" y="350" as="targetPoint" />
          </mxGeometry>
        </mxCell>
        <mxCell id="J2Iu04j1FfDjSoK0iuVQ-125" value="&lt;div&gt;Tank &lt;br&gt;&lt;/div&gt;&lt;div&gt;Pressure&lt;br&gt;&lt;/div&gt;" style="rounded=0;whiteSpace=wrap;html=1;" vertex="1" parent="1">
          <mxGeometry x="670" y="280" width="100" height="60" as="geometry" />
        </mxCell>
        <mxCell id="J2Iu04j1FfDjSoK0iuVQ-126" value="" style="endArrow=none;html=1;rounded=0;entryX=0;entryY=0.25;entryDx=0;entryDy=0;exitX=0;exitY=0.25;exitDx=0;exitDy=0;strokeColor=#00ff00;" edge="1" parent="1" source="J2Iu04j1FfDjSoK0iuVQ-125" target="J2Iu04j1FfDjSoK0iuVQ-32">
          <mxGeometry width="50" height="50" relative="1" as="geometry">
            <mxPoint x="590" y="420" as="sourcePoint" />
            <mxPoint x="640" y="370" as="targetPoint" />
            <Array as="points">
              <mxPoint x="630" y="295" />
              <mxPoint x="630" y="150" />
            </Array>
          </mxGeometry>
        </mxCell>
        <mxCell id="J2Iu04j1FfDjSoK0iuVQ-129" value="AN0" style="edgeLabel;html=1;align=center;verticalAlign=middle;resizable=0;points=[];" connectable="0" vertex="1" parent="J2Iu04j1FfDjSoK0iuVQ-126">
          <mxGeometry x="0.8066" y="3" relative="1" as="geometry">
            <mxPoint x="1" as="offset" />
          </mxGeometry>
        </mxCell>
        <mxCell id="J2Iu04j1FfDjSoK0iuVQ-127" value="" style="endArrow=none;html=1;rounded=0;entryX=0;entryY=0.75;entryDx=0;entryDy=0;exitX=1;exitY=0.75;exitDx=0;exitDy=0;strokeColor=#ff0000;" edge="1" parent="1" source="J2Iu04j1FfDjSoK0iuVQ-58" target="J2Iu04j1FfDjSoK0iuVQ-125">
          <mxGeometry width="50" height="50" relative="1" as="geometry">
            <mxPoint x="590" y="420" as="sourcePoint" />
            <mxPoint x="640" y="370" as="targetPoint" />
          </mxGeometry>
        </mxCell>
        <mxCell id="J2Iu04j1FfDjSoK0iuVQ-128" value="" style="endArrow=none;html=1;rounded=0;exitX=1;exitY=1;exitDx=0;exitDy=0;strokeColor=#000000;" edge="1" parent="1" source="J2Iu04j1FfDjSoK0iuVQ-58">
          <mxGeometry width="50" height="50" relative="1" as="geometry">
            <mxPoint x="450" y="335" as="sourcePoint" />
            <mxPoint x="670" y="340" as="targetPoint" />
          </mxGeometry>
        </mxCell>
        <mxCell id="J2Iu04j1FfDjSoK0iuVQ-130" value="&lt;div&gt;Port Cannon&lt;br&gt;&lt;/div&gt;&lt;div&gt;Pressure&lt;br&gt;&lt;/div&gt;" style="rounded=0;whiteSpace=wrap;html=1;" vertex="1" parent="1">
          <mxGeometry x="840" y="300" width="100" height="60" as="geometry" />
        </mxCell>
        <mxCell id="J2Iu04j1FfDjSoK0iuVQ-131" value="&lt;div&gt;STBD Cannon&lt;br&gt;&lt;/div&gt;&lt;div&gt;Pressure&lt;br&gt;&lt;/div&gt;" style="rounded=0;whiteSpace=wrap;html=1;" vertex="1" parent="1">
          <mxGeometry x="970" y="330" width="100" height="60" as="geometry" />
        </mxCell>
        <mxCell id="J2Iu04j1FfDjSoK0iuVQ-133" value="" style="endArrow=none;html=1;rounded=0;entryX=0;entryY=0.75;entryDx=0;entryDy=0;exitX=0.75;exitY=1;exitDx=0;exitDy=0;strokeColor=#ff0000;" edge="1" parent="1" source="J2Iu04j1FfDjSoK0iuVQ-58" target="J2Iu04j1FfDjSoK0iuVQ-130">
          <mxGeometry width="50" height="50" relative="1" as="geometry">
            <mxPoint x="430" y="345" as="sourcePoint" />
            <mxPoint x="640" y="370" as="targetPoint" />
            <Array as="points">
              <mxPoint x="410" y="345" />
            </Array>
          </mxGeometry>
        </mxCell>
        <mxCell id="J2Iu04j1FfDjSoK0iuVQ-134" value="" style="endArrow=none;html=1;rounded=0;exitX=0.643;exitY=1.048;exitDx=0;exitDy=0;exitPerimeter=0;" edge="1" parent="1" source="J2Iu04j1FfDjSoK0iuVQ-58">
          <mxGeometry width="50" height="50" relative="1" as="geometry">
            <mxPoint x="420" y="350" as="sourcePoint" />
            <mxPoint x="840" y="360" as="targetPoint" />
            <Array as="points">
              <mxPoint x="397" y="360" />
            </Array>
          </mxGeometry>
        </mxCell>
        <mxCell id="J2Iu04j1FfDjSoK0iuVQ-135" value="" style="endArrow=none;html=1;rounded=0;entryX=0;entryY=0.75;entryDx=0;entryDy=0;exitX=0.5;exitY=1;exitDx=0;exitDy=0;strokeColor=#ff0000;" edge="1" parent="1" source="J2Iu04j1FfDjSoK0iuVQ-58" target="J2Iu04j1FfDjSoK0iuVQ-131">
          <mxGeometry width="50" height="50" relative="1" as="geometry">
            <mxPoint x="420" y="350" as="sourcePoint" />
            <mxPoint x="850" y="355" as="targetPoint" />
            <Array as="points">
              <mxPoint x="380" y="370" />
            </Array>
          </mxGeometry>
        </mxCell>
        <mxCell id="J2Iu04j1FfDjSoK0iuVQ-136" value="" style="endArrow=none;html=1;rounded=0;exitX=0.409;exitY=0.991;exitDx=0;exitDy=0;exitPerimeter=0;entryX=0;entryY=1;entryDx=0;entryDy=0;" edge="1" parent="1" source="J2Iu04j1FfDjSoK0iuVQ-58" target="J2Iu04j1FfDjSoK0iuVQ-131">
          <mxGeometry width="50" height="50" relative="1" as="geometry">
            <mxPoint x="407" y="353" as="sourcePoint" />
            <mxPoint x="850" y="370" as="targetPoint" />
            <Array as="points">
              <mxPoint x="370" y="390" />
            </Array>
          </mxGeometry>
        </mxCell>
        <mxCell id="J2Iu04j1FfDjSoK0iuVQ-137" value="" style="endArrow=none;html=1;rounded=0;entryX=0;entryY=0.25;entryDx=0;entryDy=0;exitX=0;exitY=0.25;exitDx=0;exitDy=0;strokeColor=#00ff00;" edge="1" parent="1" source="J2Iu04j1FfDjSoK0iuVQ-47" target="J2Iu04j1FfDjSoK0iuVQ-130">
          <mxGeometry width="50" height="50" relative="1" as="geometry">
            <mxPoint x="740" y="390" as="sourcePoint" />
            <mxPoint x="790" y="340" as="targetPoint" />
            <Array as="points">
              <mxPoint x="820" y="150" />
              <mxPoint x="820" y="315" />
            </Array>
          </mxGeometry>
        </mxCell>
        <mxCell id="J2Iu04j1FfDjSoK0iuVQ-140" value="AN0" style="edgeLabel;html=1;align=center;verticalAlign=middle;resizable=0;points=[];" connectable="0" vertex="1" parent="J2Iu04j1FfDjSoK0iuVQ-137">
          <mxGeometry x="-0.9004" y="1" relative="1" as="geometry">
            <mxPoint as="offset" />
          </mxGeometry>
        </mxCell>
        <mxCell id="J2Iu04j1FfDjSoK0iuVQ-138" value="" style="endArrow=none;html=1;rounded=0;strokeColor=#00ff00;entryX=0;entryY=0.25;entryDx=0;entryDy=0;" edge="1" parent="1" target="J2Iu04j1FfDjSoK0iuVQ-131">
          <mxGeometry width="50" height="50" relative="1" as="geometry">
            <mxPoint x="840" y="160" as="sourcePoint" />
            <mxPoint x="960" y="340" as="targetPoint" />
            <Array as="points">
              <mxPoint x="830" y="160" />
              <mxPoint x="830" y="290" />
              <mxPoint x="950" y="290" />
              <mxPoint x="950" y="340" />
              <mxPoint x="950" y="345" />
            </Array>
          </mxGeometry>
        </mxCell>
        <mxCell id="J2Iu04j1FfDjSoK0iuVQ-139" value="AN1" style="edgeLabel;html=1;align=center;verticalAlign=middle;resizable=0;points=[];" connectable="0" vertex="1" parent="J2Iu04j1FfDjSoK0iuVQ-138">
          <mxGeometry x="0.2175" y="-2" relative="1" as="geometry">
            <mxPoint as="offset" />
          </mxGeometry>
        </mxCell>
        <mxCell id="J2Iu04j1FfDjSoK0iuVQ-141" value="Battries" style="rounded=0;whiteSpace=wrap;html=1;" vertex="1" parent="1">
          <mxGeometry x="90" y="50" width="120" height="60" as="geometry" />
        </mxCell>
        <mxCell id="J2Iu04j1FfDjSoK0iuVQ-142" value="&lt;div&gt;Master &lt;br&gt;&lt;/div&gt;&lt;div&gt;Braker&lt;br&gt;&lt;/div&gt;" style="rounded=0;whiteSpace=wrap;html=1;" vertex="1" parent="1">
          <mxGeometry x="145" y="130" width="65" height="60" as="geometry" />
        </mxCell>
        <mxCell id="J2Iu04j1FfDjSoK0iuVQ-143" value="" style="endArrow=none;html=1;rounded=0;entryX=0.594;entryY=1.006;entryDx=0;entryDy=0;exitX=0.25;exitY=0;exitDx=0;exitDy=0;entryPerimeter=0;" edge="1" parent="1" source="J2Iu04j1FfDjSoK0iuVQ-142" target="J2Iu04j1FfDjSoK0iuVQ-141">
          <mxGeometry width="50" height="50" relative="1" as="geometry">
            <mxPoint x="390" y="290" as="sourcePoint" />
            <mxPoint x="440" y="240" as="targetPoint" />
          </mxGeometry>
        </mxCell>
        <mxCell id="J2Iu04j1FfDjSoK0iuVQ-144" value="" style="endArrow=none;html=1;rounded=0;entryX=0.692;entryY=1;entryDx=0;entryDy=0;exitX=0.75;exitY=0;exitDx=0;exitDy=0;entryPerimeter=0;" edge="1" parent="1" source="J2Iu04j1FfDjSoK0iuVQ-4" target="J2Iu04j1FfDjSoK0iuVQ-142">
          <mxGeometry width="50" height="50" relative="1" as="geometry">
            <mxPoint x="171" y="140" as="sourcePoint" />
            <mxPoint x="171" y="120" as="targetPoint" />
          </mxGeometry>
        </mxCell>
        <mxCell id="J2Iu04j1FfDjSoK0iuVQ-145" value="" style="endArrow=none;html=1;rounded=0;entryX=0.336;entryY=1.005;entryDx=0;entryDy=0;exitX=0;exitY=0;exitDx=0;exitDy=0;entryPerimeter=0;strokeColor=#ff0000;" edge="1" parent="1" source="J2Iu04j1FfDjSoK0iuVQ-4" target="J2Iu04j1FfDjSoK0iuVQ-141">
          <mxGeometry width="50" height="50" relative="1" as="geometry">
            <mxPoint x="270" y="200" as="sourcePoint" />
            <mxPoint x="320" y="150" as="targetPoint" />
          </mxGeometry>
        </mxCell>
      </root>
    </mxGraphModel>
  </diagram>
</mxfile>
